<?xml version="1.0" encoding="UTF-8"?>
<svg id="Layer_1" data-name="Layer 1" xmlns="http://www.w3.org/2000/svg" viewBox="0 0 200 285.61">
  <defs>
    <style>
      .cls-1 {
        fill: #23392f;
      }
    </style>
  </defs>
  <path class="cls-1" d="m200,228.07c0,31.78-19.22,57.54-42.94,57.54s-42.94-25.76-42.94-57.54,19.22-57.54,42.94-57.54,42.94,25.76,42.94,57.54"/>
  <path class="cls-1" d="m57.26,261.6c5.02,8.72,9.46,16.73,12.86,24.01h27.26c-3.86-7.72-7.13-15.6-9.63-23.62-2.03-6.56-3.58-13.2-4.53-19.89-11.52-81.31,76-114.13,66.04-184.4C143.88,19.57,114.85-4.97,73.7.85,32.55,6.67-8.52,56.5,1.53,127.76c7.68,54.39,36.02,99.6,55.73,133.85"/>
</svg>